<svg width="539" height="158" viewBox="0 0 539 158" fill="none" xmlns="http://www.w3.org/2000/svg">
<path d="M170.465 55.8994H187.885V102H201.553V55.8994H218.946V44.6404H170.465V55.8994ZM221.25 102H234.945V78.6416C234.945 73.5162 238.586 70.0713 243.488 70.0713C245.112 70.0713 247.549 70.3514 248.865 70.7995V58.8963C247.717 58.5882 246.288 58.3921 245.028 58.3921C240.323 58.3921 236.57 61.1369 235.001 66.8224H234.553V58.9803H221.25V102ZM264.955 102.728C270.949 102.728 275.094 100.404 277.447 96.0064H277.783V102H290.666V72.76C290.666 63.6575 282.572 58.4201 271.621 58.4201C260.054 58.4201 253.5 64.2457 252.408 72.0878L265.039 72.536C265.628 69.7912 267.896 68.1108 271.509 68.1108C274.87 68.1108 276.999 69.7352 276.999 72.62V72.76C276.999 75.3927 274.142 75.9529 266.804 76.5971C258.094 77.3253 250.812 80.5462 250.812 90.0687C250.812 98.5831 256.721 102.728 264.955 102.728ZM269.185 93.7658C266.02 93.7658 263.779 92.2533 263.779 89.3966C263.779 86.6238 265.964 84.9434 269.857 84.3552C272.405 83.9911 275.542 83.4309 277.083 82.6187V86.7078C277.083 90.909 273.554 93.7658 269.185 93.7658ZM319.122 102.812C331.221 102.812 338.728 95.7823 339.092 85.1394H326.292C325.788 89.7046 323.043 92.1973 319.29 92.1973C314.473 92.1973 311.336 88.1362 311.336 80.4901C311.336 72.9001 314.501 68.839 319.29 68.839C323.211 68.839 325.76 71.4997 326.292 75.8969H339.092C338.784 65.31 331.053 58.4201 319.094 58.4201C305.566 58.4201 297.388 67.4386 297.388 80.6302C297.388 93.7658 305.51 102.812 319.122 102.812ZM346.101 102H359.796V89.0885L362.569 85.7276L372.82 102H388.644L372.764 77.7174L388.028 58.9803H372.512L360.412 74.3845H359.796V44.6404H346.101V102ZM392.929 102H406.625V78.6416C406.625 73.5162 410.266 70.0713 415.167 70.0713C416.792 70.0713 419.228 70.3514 420.545 70.7995V58.8963C419.396 58.5882 417.968 58.3921 416.708 58.3921C412.002 58.3921 408.249 61.1369 406.681 66.8224H406.233V58.9803H392.929V102ZM426.125 102H439.821V78.6416C439.821 73.5162 443.462 70.0713 448.363 70.0713C449.988 70.0713 452.425 70.3514 453.741 70.7995V58.8963C452.593 58.5882 451.164 58.3921 449.904 58.3921C445.199 58.3921 441.446 61.1369 439.877 66.8224H439.429V58.9803H426.125V102Z" fill="black"/>
<path d="M92.0144 78.8695C92.0144 86.1189 86.1189 92.0144 78.8695 92.0144C71.6135 92.0144 65.7246 86.1189 65.7246 78.8695C65.7246 71.6201 71.6135 65.7246 78.8695 65.7246C86.1189 65.7246 92.0144 71.6201 92.0144 78.8695ZM156.28 63.9434C157.213 68.7808 157.739 73.7627 157.739 78.8695C157.739 122.425 122.425 157.739 78.8695 157.739C35.3138 157.739 0 122.425 0 78.8695C0 35.3138 35.3138 0 78.8695 0C108.741 0 141.728 18.6329 144.568 46.3753C147.019 70.3384 127.519 92.0473 123.588 96.155L133.086 105.245C136.694 101.472 151.383 85.0476 156.28 63.9434ZM29.7075 60.5258C35.0575 46.349 46.3293 35.0969 60.5389 29.7864L59.6911 23.089C42.5172 28.978 28.932 42.5304 23.0036 59.6911L29.7075 60.5258ZM62.2083 43.1745L61.3473 36.3325C50.0361 40.999 40.999 50.0361 36.326 61.3539L43.1679 62.2083C47.0982 53.8481 53.8481 47.0982 62.2083 43.1745ZM105.159 78.8695C105.159 64.3509 93.388 52.5797 78.8695 52.5797C64.3509 52.5797 52.5797 64.3509 52.5797 78.8695C52.5797 93.388 64.3509 105.159 78.8695 105.159C93.388 105.159 105.159 93.388 105.159 78.8695ZM130.029 111.337L117.686 99.2967L100.335 116.904L112.704 128.958L130.029 111.337Z" fill="black"/>
</svg>
