<svg width="469" height="162" viewBox="0 0 469 162" fill="none" xmlns="http://www.w3.org/2000/svg">
<path d="M174.52 57.8595H192.334V105H206.31V57.8595H224.095V46.3464H174.52V57.8595ZM226.451 105H240.455V81.1147C240.455 75.8737 244.179 72.351 249.19 72.351C250.852 72.351 253.343 72.6374 254.689 73.0957V60.9239C253.515 60.6089 252.054 60.4084 250.766 60.4084C245.954 60.4084 242.117 63.215 240.513 69.0289H240.054V61.0098H226.451V105ZM271.143 105.745C277.271 105.745 281.51 103.368 283.916 98.8712H284.259V105H297.434V75.1004C297.434 65.7926 289.157 60.437 277.959 60.437C266.131 60.437 259.429 66.394 258.312 74.4131L271.229 74.8713C271.83 72.0646 274.15 70.3463 277.844 70.3463C281.281 70.3463 283.458 72.0074 283.458 74.9572V75.1004C283.458 77.7925 280.536 78.3653 273.033 79.024C264.126 79.7686 256.68 83.0622 256.68 92.7996C256.68 101.506 262.723 105.745 271.143 105.745ZM275.467 96.58C272.231 96.58 269.94 95.0335 269.94 92.1122C269.94 89.2769 272.174 87.5586 276.155 86.9571C278.761 86.5848 281.968 86.012 283.543 85.1815V89.3629C283.543 93.6588 279.935 96.58 275.467 96.58ZM326.531 105.831C338.904 105.831 346.579 98.642 346.951 87.7591H333.863C333.347 92.4273 330.541 94.9762 326.703 94.9762C321.777 94.9762 318.57 90.8235 318.57 83.0049C318.57 75.2436 321.806 71.0909 326.703 71.0909C330.713 71.0909 333.319 73.8116 333.863 78.308H346.951C346.636 67.4823 338.732 60.437 326.503 60.437C312.67 60.437 304.307 69.6589 304.307 83.1481C304.307 96.58 312.613 105.831 326.531 105.831ZM354.118 105H368.123V91.7972L370.958 88.3605L381.44 105H397.622L381.383 80.1696L396.992 61.0098H381.125L368.753 76.7615H368.123V46.3464H354.118V105ZM402.003 105H416.008V81.1147C416.008 75.8737 419.731 72.351 424.743 72.351C426.404 72.351 428.896 72.6374 430.242 73.0957V60.9239C429.068 60.6089 427.607 60.4084 426.318 60.4084C421.507 60.4084 417.669 63.215 416.065 69.0289H415.607V61.0098H402.003V105ZM435.948 105H449.953V81.1147C449.953 75.8737 453.676 72.351 458.688 72.351C460.349 72.351 462.841 72.6374 464.187 73.0957V60.9239C463.013 60.6089 461.552 60.4084 460.263 60.4084C455.452 60.4084 451.614 63.215 450.01 69.0289H449.552V61.0098H435.948V105Z" fill="black"/>
<path d="M94.0901 80.8695C94.0901 88.2824 88.0616 94.3109 80.6487 94.3109C73.229 94.3109 67.2072 88.2824 67.2072 80.8695C67.2072 73.4565 73.229 67.428 80.6487 67.428C88.0616 67.428 94.0901 73.4565 94.0901 80.8695ZM159.805 65.6067C160.76 70.5532 161.297 75.6475 161.297 80.8695C161.297 125.408 125.187 161.518 80.6487 161.518C36.1104 161.518 0 125.408 0 80.8695C0 36.3312 36.1104 0.220795 80.6487 0.220795C111.194 0.220795 144.926 19.274 147.829 47.6422C150.336 72.146 130.395 94.3445 126.376 98.545L136.088 107.84C139.778 103.982 154.798 87.187 159.805 65.6067ZM30.3777 62.1119C35.8483 47.6153 47.3744 36.1095 61.9046 30.6791L61.0376 23.8307C43.4764 29.8525 29.5846 43.7106 23.5225 61.2584L30.3777 62.1119ZM63.6116 44.3692L62.7312 37.373C51.1649 42.1447 41.9239 51.3857 37.1454 62.9587L44.1417 63.8324C48.1607 55.2837 55.0629 48.3815 63.6116 44.3692ZM107.532 80.8695C107.532 66.0234 95.4948 53.9866 80.6487 53.9866C65.8026 53.9866 53.7658 66.0234 53.7658 80.8695C53.7658 95.7156 65.8026 107.752 80.6487 107.752C95.4948 107.752 107.532 95.7156 107.532 80.8695ZM132.963 114.07L120.341 101.757L102.599 119.762L115.247 132.088L132.963 114.07Z" fill="black"/>
</svg>
